# 3ds Max Wavefront OBJ Exporter v0.97b - (c)2007 guruware
# File Created: 01.08.2015 20:43:06

mtllib PlantVar7small.mtl

#
# object Object266
#

v  10.224624 -0.037018 -2.890088
v  10.134187 -0.049749 -2.890088
v  10.160942 0.415358 -2.890088
v  10.070506 0.402627 -2.890088
# 4 vertices

vn 0.000000 -0.000000 1.000000
# 1 vertex normals

vt 0.512054 0.692371 0.000000
vt 0.512054 0.895409 0.000000
vt 0.471463 0.895409 0.000000
vt 0.471463 0.692371 0.000000
# 4 texture coords

g Object266
usemtl 01___Default23
s 1
f -4/-4/-1 -2/-3/-1 -1/-2/-1 -3/-1/-1 
# 1 polygons

#
# object Object267
#

v  10.152940 0.592222 -2.890088
v  10.248088 0.592222 -2.890088
v  10.152940 -0.044349 -2.890088
v  10.248088 -0.044349 -2.890088
# 4 vertices

vn 0.000000 -0.000000 1.000000
# 1 vertex normals

vt 0.244227 0.121687 0.000000
vt 0.286515 0.121687 0.000000
vt 0.286515 0.404607 0.000000
vt 0.244227 0.404607 0.000000
# 4 texture coords

g Object267
usemtl 01___Default23
s 1
f -2/-4/-1 -1/-3/-1 -3/-2/-1 -4/-1/-1 
# 1 polygons

#
# object Object268
#

v  9.818626 0.272311 -3.083663
v  9.898362 0.218510 -3.178763
v  10.116838 0.228112 -2.808625
v  10.196574 0.174311 -2.903724
v  10.143375 0.182188 -2.855769
v  9.845164 0.226387 -3.130807
v  10.170515 0.185205 -2.931736
v  10.117316 0.193082 -2.883781
v  10.090780 0.239006 -2.836637
v  10.143797 0.209850 -2.968081
v  10.090598 0.217727 -2.920126
v  10.064061 0.263652 -2.872982
v  10.114118 0.232793 -3.005944
v  10.060919 0.240670 -2.957989
v  10.034383 0.286594 -2.910846
v  10.068568 0.250187 -3.054054
v  10.014558 0.258611 -3.005893
v  9.988833 0.303988 -2.958955
v  9.998274 0.250120 -3.112875
v  9.945075 0.257997 -3.064921
v  9.918538 0.303921 -3.017777
# 21 vertices

vn 0.316013 0.762358 -0.564753
vn 0.131661 0.905197 -0.404085
vn 0.033197 0.880547 -0.472795
vn 0.179081 0.753217 -0.632926
vn 0.259512 0.956852 0.130716
vn 0.330099 0.919083 0.215224
vn 0.551403 0.834134 -0.013216
vn 0.474208 0.874600 -0.100999
vn 0.638317 0.699254 -0.321861
vn 0.712057 0.659304 -0.241438
vn 0.380309 0.882420 0.276946
vn 0.603854 0.795358 0.052590
vn 0.761252 0.623342 -0.178716
vn 0.307335 0.932906 0.187700
vn 0.524787 0.850100 -0.043918
vn 0.688885 0.673124 -0.268962
vn 0.169262 0.985379 0.019466
vn 0.357355 0.906805 -0.223610
vn 0.534169 0.734996 -0.417666
vn -0.011570 0.984176 -0.176813
vn -0.114411 0.952175 -0.283324
# 21 vertex normals

vt 0.735139 0.606781 0.000000
vt 0.769843 0.606780 0.000000
vt 0.769843 0.654732 0.000000
vt 0.735139 0.654732 0.000000
vt 0.805144 0.454563 0.000000
vt 0.805144 0.474950 0.000000
vt 0.769843 0.474950 0.000000
vt 0.769843 0.454563 0.000000
vt 0.735139 0.454563 0.000000
vt 0.735139 0.474950 0.000000
vt 0.805144 0.501401 0.000000
vt 0.769843 0.501401 0.000000
vt 0.735139 0.501401 0.000000
vt 0.805144 0.528957 0.000000
vt 0.769843 0.528957 0.000000
vt 0.735139 0.528958 0.000000
vt 0.805144 0.557460 0.000000
vt 0.769843 0.557460 0.000000
vt 0.735139 0.557460 0.000000
vt 0.805144 0.606780 0.000000
vt 0.805144 0.654732 0.000000
# 21 texture coords

g Object268
usemtl 01___Default23
s 1
f -1/-21/-21 -2/-20/-20 -16/-19/-19 -21/-18/-18 
f -18/-17/-17 -15/-16/-16 -14/-15/-15 -17/-14/-14 
f -19/-13/-13 -17/-14/-14 -14/-15/-15 -13/-12/-12 
f -12/-11/-11 -11/-10/-10 -14/-15/-15 -15/-16/-16 
f -13/-12/-12 -14/-15/-15 -11/-10/-10 -10/-9/-9 
f -9/-8/-8 -8/-7/-7 -11/-10/-10 -12/-11/-11 
f -10/-9/-9 -11/-10/-10 -8/-7/-7 -7/-6/-6 
f -6/-5/-5 -5/-4/-4 -8/-7/-7 -9/-8/-8 
f -7/-6/-6 -8/-7/-7 -5/-4/-4 -4/-3/-3 
f -3/-2/-2 -2/-20/-20 -5/-4/-4 -6/-5/-5 
f -4/-3/-3 -5/-4/-4 -2/-20/-20 -1/-21/-21 
f -20/-1/-1 -16/-19/-19 -2/-20/-20 -3/-2/-2 
# 12 polygons

#
# object Object269
#

v  10.354710 0.272311 -3.183236
v  10.427724 0.218510 -3.127060
v  10.190935 0.228112 -2.905145
v  10.263949 0.174311 -2.848969
v  10.225966 0.182188 -2.888119
v  10.389741 0.226387 -3.166210
v  10.281016 0.185205 -2.873698
v  10.243033 0.193082 -2.912849
v  10.208001 0.239006 -2.929875
v  10.303795 0.209850 -2.899876
v  10.265813 0.217727 -2.939026
v  10.230781 0.263652 -2.956052
v  10.327360 0.232793 -2.928684
v  10.289378 0.240670 -2.967834
v  10.254347 0.286594 -2.984859
v  10.356601 0.250187 -2.971817
v  10.318402 0.258611 -3.011621
v  10.283586 0.303988 -3.027993
v  10.391043 0.250120 -3.036721
v  10.353060 0.257997 -3.075871
v  10.318027 0.303921 -3.092897
# 21 vertices

vn 0.513648 0.812222 0.186537
vn 0.350541 0.989764 0.013362
vn 0.398765 0.970575 -0.090135
vn 0.556612 0.813803 0.044011
vn -0.097942 1.041664 0.199834
vn -0.162117 0.994183 0.282424
vn 0.063058 0.876845 0.479548
vn 0.129242 0.927891 0.389845
vn 0.342568 0.715363 0.538264
vn 0.282336 0.665122 0.623635
vn -0.209000 0.949536 0.342101
vn 0.012940 0.829689 0.542083
vn 0.234456 0.621358 0.682379
vn -0.141213 1.011319 0.255633
vn 0.086222 0.896678 0.448416
vn 0.303192 0.682291 0.596442
vn -0.012802 1.080359 0.095334
vn 0.221011 0.972979 0.257473
vn 0.412586 0.763530 0.421375
vn 0.135695 1.093308 -0.106472
vn 0.216228 1.065909 -0.218278
# 21 vertex normals

vt 0.735139 0.606781 0.000000
vt 0.769843 0.606780 0.000000
vt 0.769843 0.654732 0.000000
vt 0.735139 0.654732 0.000000
vt 0.805144 0.454563 0.000000
vt 0.805144 0.474950 0.000000
vt 0.769843 0.474950 0.000000
vt 0.769843 0.454563 0.000000
vt 0.735139 0.454563 0.000000
vt 0.735139 0.474950 0.000000
vt 0.805144 0.501401 0.000000
vt 0.769843 0.501401 0.000000
vt 0.735139 0.501401 0.000000
vt 0.805144 0.528957 0.000000
vt 0.769843 0.528957 0.000000
vt 0.735139 0.528958 0.000000
vt 0.805144 0.557460 0.000000
vt 0.769843 0.557460 0.000000
vt 0.735139 0.557460 0.000000
vt 0.805144 0.606780 0.000000
vt 0.805144 0.654732 0.000000
# 21 texture coords

g Object269
usemtl 01___Default23
s 1
f -1/-21/-21 -2/-20/-20 -16/-19/-19 -21/-18/-18 
f -18/-17/-17 -15/-16/-16 -14/-15/-15 -17/-14/-14 
f -19/-13/-13 -17/-14/-14 -14/-15/-15 -13/-12/-12 
f -12/-11/-11 -11/-10/-10 -14/-15/-15 -15/-16/-16 
f -13/-12/-12 -14/-15/-15 -11/-10/-10 -10/-9/-9 
f -9/-8/-8 -8/-7/-7 -11/-10/-10 -12/-11/-11 
f -10/-9/-9 -11/-10/-10 -8/-7/-7 -7/-6/-6 
f -6/-5/-5 -5/-4/-4 -8/-7/-7 -9/-8/-8 
f -7/-6/-6 -8/-7/-7 -5/-4/-4 -4/-3/-3 
f -3/-2/-2 -2/-20/-20 -5/-4/-4 -6/-5/-5 
f -4/-3/-3 -5/-4/-4 -2/-20/-20 -1/-21/-21 
f -20/-1/-1 -16/-19/-19 -2/-20/-20 -3/-2/-2 
# 12 polygons

#
# object Object270
#

v  10.209064 0.592222 -2.873310
v  10.148119 0.592222 -2.946376
v  10.209064 -0.044349 -2.873310
v  10.148119 -0.044349 -2.946376
# 4 vertices

vn 0.767921 -0.000000 -0.640544
# 1 vertex normals

vt 0.244227 0.121687 0.000000
vt 0.286515 0.121687 0.000000
vt 0.286515 0.404607 0.000000
vt 0.244227 0.404607 0.000000
# 4 texture coords

g Object270
usemtl 01___Default23
s 1
f -2/-4/-1 -1/-3/-1 -3/-2/-1 -4/-1/-1 
# 1 polygons

#
# object Object271
#

v  10.274556 0.272311 -2.492591
v  10.150454 0.218510 -2.492906
v  10.294745 0.228112 -2.897768
v  10.170644 0.174311 -2.898083
v  10.241546 0.182188 -2.887948
v  10.221355 0.226387 -2.482771
v  10.165825 0.185205 -2.860129
v  10.236726 0.193082 -2.849994
v  10.289927 0.239006 -2.859814
v  10.155029 0.209850 -2.816331
v  10.225930 0.217727 -2.806196
v  10.279132 0.263652 -2.816016
v  10.144964 0.232793 -2.769286
v  10.215865 0.240670 -2.759151
v  10.269065 0.286594 -2.768971
v  10.137196 0.250187 -2.703492
v  10.208776 0.258611 -2.692866
v  10.261298 0.303988 -2.703176
v  10.137052 0.250120 -2.611833
v  10.207952 0.257997 -2.601698
v  10.261154 0.303921 -2.611518
# 21 vertices

vn -0.636106 0.762358 0.119077
vn -0.394640 0.905197 0.157729
vn -0.384334 0.880547 0.277353
vn -0.600746 0.753217 0.267897
vn -0.065850 0.956852 -0.283014
vn -0.046168 0.919083 -0.391350
vn -0.363347 0.834134 -0.414968
vn -0.381311 0.874600 -0.299460
vn -0.656034 0.699254 -0.284011
vn -0.641509 0.659304 -0.392152
vn -0.030932 0.882420 -0.469444
vn -0.346410 0.795358 -0.497399
vn -0.624855 0.623342 -0.470106
vn -0.052723 0.932906 -0.356239
vn -0.369875 0.850100 -0.374864
vn -0.647803 0.673124 -0.356727
vn -0.093471 0.985379 -0.142448
vn -0.400616 0.906805 -0.131188
vn -0.662893 0.734996 -0.142666
vn -0.128367 0.984176 0.122142
vn -0.144285 0.952175 0.269341
# 21 vertex normals

vt 0.735139 0.606781 0.000000
vt 0.769843 0.606780 0.000000
vt 0.769843 0.654732 0.000000
vt 0.735139 0.654732 0.000000
vt 0.805144 0.454563 0.000000
vt 0.805144 0.474950 0.000000
vt 0.769843 0.474950 0.000000
vt 0.769843 0.454563 0.000000
vt 0.735139 0.454563 0.000000
vt 0.735139 0.474950 0.000000
vt 0.805144 0.501401 0.000000
vt 0.769843 0.501401 0.000000
vt 0.735139 0.501401 0.000000
vt 0.805144 0.528957 0.000000
vt 0.769843 0.528957 0.000000
vt 0.735139 0.528958 0.000000
vt 0.805144 0.557460 0.000000
vt 0.769843 0.557460 0.000000
vt 0.735139 0.557460 0.000000
vt 0.805144 0.606780 0.000000
vt 0.805144 0.654732 0.000000
# 21 texture coords

g Object271
usemtl 01___Default23
s 1
f -1/-21/-21 -2/-20/-20 -16/-19/-19 -21/-18/-18 
f -18/-17/-17 -15/-16/-16 -14/-15/-15 -17/-14/-14 
f -19/-13/-13 -17/-14/-14 -14/-15/-15 -13/-12/-12 
f -12/-11/-11 -11/-10/-10 -14/-15/-15 -15/-16/-16 
f -13/-12/-12 -14/-15/-15 -11/-10/-10 -10/-9/-9 
f -9/-8/-8 -8/-7/-7 -11/-10/-10 -12/-11/-11 
f -10/-9/-9 -11/-10/-10 -8/-7/-7 -7/-6/-6 
f -6/-5/-5 -5/-4/-4 -8/-7/-7 -9/-8/-8 
f -7/-6/-6 -8/-7/-7 -5/-4/-4 -4/-3/-3 
f -3/-2/-2 -2/-20/-20 -5/-4/-4 -6/-5/-5 
f -4/-3/-3 -5/-4/-4 -2/-20/-20 -1/-21/-21 
f -20/-1/-1 -16/-19/-19 -2/-20/-20 -3/-2/-2 
# 12 polygons

#
# object Object272
#

v  10.011726 0.173216 -2.737303
v  9.979889 0.138100 -2.788311
v  10.175312 0.144367 -2.870008
v  10.143476 0.109252 -2.921016
v  10.157773 0.114393 -2.888410
v  9.994186 0.143241 -2.755705
v  10.127398 0.116362 -2.909786
v  10.141695 0.121504 -2.877180
v  10.159234 0.151478 -2.858777
v  10.107496 0.132448 -2.898973
v  10.121794 0.137589 -2.866368
v  10.139334 0.167563 -2.847965
v  10.086514 0.147422 -2.886732
v  10.100812 0.152563 -2.854126
v  10.118351 0.182538 -2.835724
v  10.058793 0.158775 -2.867024
v  10.073073 0.164274 -2.833969
v  10.090631 0.193890 -2.816016
v  10.022926 0.158732 -2.835189
v  10.037225 0.163873 -2.802584
v  10.054764 0.193847 -2.784181
# 21 vertices

vn -0.416069 0.812222 -0.354284
vn -0.323768 0.989764 -0.135026
vn -0.405120 0.970575 -0.054909
vn -0.506133 0.813803 -0.235760
vn 0.161605 1.041664 -0.153005
vn 0.250596 0.994183 -0.207959
vn 0.108510 0.876845 -0.471347
vn 0.015150 0.927891 -0.410431
vn -0.132855 0.715363 -0.624043
vn -0.046585 0.665122 -0.682982
vn 0.315379 0.949536 -0.247489
vn 0.177323 0.829689 -0.512424
vn 0.018805 0.621357 -0.721289
vn 0.221648 1.011319 -0.190163
vn 0.075928 0.896678 -0.450274
vn -0.075629 0.682291 -0.664793
vn 0.045312 1.080359 -0.084849
vn -0.117094 0.972979 -0.318477
vn -0.239308 0.763530 -0.538995
vn -0.164348 1.093307 0.052336
vn -0.278877 1.065909 0.128947
# 21 vertex normals

vt 0.735139 0.606781 0.000000
vt 0.769843 0.606780 0.000000
vt 0.769843 0.654732 0.000000
vt 0.735139 0.654732 0.000000
vt 0.805144 0.454563 0.000000
vt 0.805144 0.474950 0.000000
vt 0.769843 0.474950 0.000000
vt 0.769843 0.454563 0.000000
vt 0.735139 0.454563 0.000000
vt 0.735139 0.474950 0.000000
vt 0.805144 0.501401 0.000000
vt 0.769843 0.501401 0.000000
vt 0.735139 0.501401 0.000000
vt 0.805144 0.528957 0.000000
vt 0.769843 0.528957 0.000000
vt 0.735139 0.528958 0.000000
vt 0.805144 0.557460 0.000000
vt 0.769843 0.557460 0.000000
vt 0.735139 0.557460 0.000000
vt 0.805144 0.606780 0.000000
vt 0.805144 0.654732 0.000000
# 21 texture coords

g Object272
usemtl 01___Default23
s 1
f -1/-21/-21 -2/-20/-20 -16/-19/-19 -21/-18/-18 
f -18/-17/-17 -15/-16/-16 -14/-15/-15 -17/-14/-14 
f -19/-13/-13 -17/-14/-14 -14/-15/-15 -13/-12/-12 
f -12/-11/-11 -11/-10/-10 -14/-15/-15 -15/-16/-16 
f -13/-12/-12 -14/-15/-15 -11/-10/-10 -10/-9/-9 
f -9/-8/-8 -8/-7/-7 -11/-10/-10 -12/-11/-11 
f -10/-9/-9 -11/-10/-10 -8/-7/-7 -7/-6/-6 
f -6/-5/-5 -5/-4/-4 -8/-7/-7 -9/-8/-8 
f -7/-6/-6 -8/-7/-7 -5/-4/-4 -4/-3/-3 
f -3/-2/-2 -2/-20/-20 -5/-4/-4 -6/-5/-5 
f -4/-3/-3 -5/-4/-4 -2/-20/-20 -1/-21/-21 
f -20/-1/-1 -16/-19/-19 -2/-20/-20 -3/-2/-2 
# 12 polygons

#
# object Object273
#

v  10.163148 -0.037018 -2.928358
v  10.221076 -0.049749 -2.858909
v  10.203938 0.415358 -2.879455
v  10.261868 0.402627 -2.810007
# 4 vertices

vn 0.767921 -0.000000 -0.640544
# 1 vertex normals

vt 0.512054 0.692371 0.000000
vt 0.512054 0.895409 0.000000
vt 0.471463 0.895409 0.000000
vt 0.471463 0.692371 0.000000
# 4 texture coords

g Object273
usemtl 01___Default23
s 1
f -4/-4/-1 -2/-3/-1 -1/-2/-1 -3/-1/-1 
# 1 polygons

#
# object Object274
#

v  10.375099 0.169566 -2.803972
v  10.345387 0.140613 -2.764286
v  10.224300 0.145780 -2.890132
v  10.194589 0.116827 -2.850446
v  10.215387 0.121066 -2.871162
v  10.366185 0.144852 -2.785001
v  10.208016 0.122690 -2.841438
v  10.228814 0.126929 -2.862153
v  10.237729 0.151643 -2.881124
v  10.222263 0.135953 -2.829365
v  10.243062 0.140192 -2.850081
v  10.251975 0.164906 -2.869052
v  10.237932 0.148299 -2.816888
v  10.258730 0.152538 -2.837604
v  10.267644 0.177252 -2.856575
v  10.261349 0.157659 -2.801459
v  10.282497 0.162193 -2.822295
v  10.291059 0.186612 -2.841146
v  10.296516 0.157624 -2.783385
v  10.317314 0.161863 -2.804101
v  10.326228 0.186577 -2.823071
# 21 vertices

vn -0.179773 0.812222 0.516055
vn -0.008755 0.989764 0.350687
vn 0.095366 0.970575 0.397546
vn -0.036694 0.813803 0.557142
vn -0.201104 1.041664 -0.095309
vn -0.284530 0.994184 -0.158393
vn -0.478678 0.876845 0.069353
vn -0.388114 0.927891 0.134353
vn -0.533717 0.715363 0.349610
vn -0.619872 0.665122 0.290505
vn -0.344818 0.949536 -0.204487
vn -0.541866 0.829689 0.020061
vn -0.679240 0.621358 0.243401
vn -0.257466 1.011319 -0.137843
vn -0.447245 0.896678 0.092105
vn -0.592408 0.682292 0.311002
vn -0.095494 1.080359 -0.011548
vn -0.254547 0.972979 0.224375
vn -0.415918 0.763530 0.418087
vn 0.108246 1.093308 0.134285
vn 0.221100 1.065909 0.213342
# 21 vertex normals

vt 0.735139 0.606781 0.000000
vt 0.769843 0.606780 0.000000
vt 0.769843 0.654732 0.000000
vt 0.735139 0.654732 0.000000
vt 0.805144 0.454563 0.000000
vt 0.805144 0.474950 0.000000
vt 0.769843 0.474950 0.000000
vt 0.769843 0.454563 0.000000
vt 0.735139 0.454563 0.000000
vt 0.735139 0.474950 0.000000
vt 0.805144 0.501401 0.000000
vt 0.769843 0.501401 0.000000
vt 0.735139 0.501401 0.000000
vt 0.805144 0.528957 0.000000
vt 0.769843 0.528957 0.000000
vt 0.735139 0.528958 0.000000
vt 0.805144 0.557460 0.000000
vt 0.769843 0.557460 0.000000
vt 0.735139 0.557460 0.000000
vt 0.805144 0.606780 0.000000
vt 0.805144 0.654732 0.000000
# 21 texture coords

g Object274
usemtl 01___Default23
s 1
f -1/-21/-21 -2/-20/-20 -16/-19/-19 -21/-18/-18 
f -18/-17/-17 -15/-16/-16 -14/-15/-15 -17/-14/-14 
f -19/-13/-13 -17/-14/-14 -14/-15/-15 -13/-12/-12 
f -12/-11/-11 -11/-10/-10 -14/-15/-15 -15/-16/-16 
f -13/-12/-12 -14/-15/-15 -11/-10/-10 -10/-9/-9 
f -9/-8/-8 -8/-7/-7 -11/-10/-10 -12/-11/-11 
f -10/-9/-9 -11/-10/-10 -8/-7/-7 -7/-6/-6 
f -6/-5/-5 -5/-4/-4 -8/-7/-7 -9/-8/-8 
f -7/-6/-6 -8/-7/-7 -5/-4/-4 -4/-3/-3 
f -3/-2/-2 -2/-20/-20 -5/-4/-4 -6/-5/-5 
f -4/-3/-3 -5/-4/-4 -2/-20/-20 -1/-21/-21 
f -20/-1/-1 -16/-19/-19 -2/-20/-20 -3/-2/-2 
# 12 polygons

