# This file uses centimeters as units for non-parametric coordinates.

mtllib RockNN4LOD2.mtl
g default
v -0.150855 0.922340 -1.130915
v 0.043617 1.142323 0.455563
v 0.715081 1.280207 -0.760088
v 0.134926 0.502056 -1.019588
v 0.659981 0.425817 -0.979141
v 0.098793 0.381644 0.581827
v -0.645500 1.039541 0.629540
v -0.795282 1.029413 0.656006
v 0.641157 0.275440 0.117069
v -0.395517 1.126277 0.563564
v -0.281824 1.104015 0.535603
v -0.907640 1.007875 0.627554
v -1.083988 0.942438 0.548797
v -0.993986 0.815905 0.513104
v -1.299756 1.259909 0.554070
v -0.099573 1.123182 0.496197
v -0.918765 0.638224 0.464520
v -1.054563 0.489935 0.384540
v 0.112830 0.159622 0.437725
v -1.383716 1.374808 0.278051
v -0.898326 1.468178 0.580880
v -1.353308 1.596166 0.375297
v 0.176400 1.234038 0.310015
v 0.671280 1.140008 -0.073508
v 0.239824 1.293439 0.234383
v -0.987719 0.433117 0.242711
v -0.225968 1.281836 0.491002
v -0.900784 0.342419 0.416768
v -1.227079 0.953651 -0.060284
v -0.930690 0.333083 0.161242
v -1.266226 0.881799 0.479437
v 0.393279 1.342253 0.116755
v 0.672031 1.403333 -0.130169
v -0.016612 0.019699 -0.098593
v 0.555769 1.422676 -0.040121
v 1.075855 0.761727 -0.353245
v -0.071804 1.392226 0.358154
v -1.008414 1.864253 -0.182826
v 0.444115 0.109779 0.283700
v -0.881891 0.178731 -0.064442
v 0.986524 0.031709 -0.129613
v -0.068418 1.677442 -0.201649
v 0.819812 1.333241 -0.247549
v -0.995609 0.347233 0.059073
v -0.939172 0.334156 -0.093144
v -1.320494 1.629296 -0.173572
v 0.758619 1.449185 -0.246812
v -1.032829 0.533180 -0.165106
v 0.709734 0.036564 -0.449757
v -0.694378 0.245377 -0.365465
v 1.036247 0.338879 -0.522657
v -0.871291 0.263419 -0.215065
v 0.745321 1.386685 -0.448072
v -0.537838 0.276050 -0.470545
v -0.815506 0.245582 -0.336924
v 0.292309 1.417330 -0.775382
v -0.966118 0.820209 -0.404881
v 0.814777 1.302587 -0.658681
v -0.373443 0.315585 -0.606562
v 0.715196 1.349621 -0.613105
v -1.086630 1.540538 -0.846500
v -0.928451 1.695299 -0.891486
v -1.140127 1.848191 -0.289727
v -0.307568 0.409021 -0.798375
v -0.142306 0.404103 -0.841308
v -0.269601 1.455658 -0.956957
v 0.016960 0.443847 -0.944068
v 0.562216 1.270214 -0.954828
v 0.615353 1.115130 -0.922454
v -0.781266 0.726047 -0.929756
v 0.432586 0.824246 -1.103003
v 0.489697 0.995578 -1.044415
v 0.371008 0.559303 -1.117908
v -0.947022 1.157205 -1.012021
v 0.464045 0.688549 -1.168048
vt 0.740253 0.633475
vt 0.548079 0.430025
vt 0.561104 0.389708
vt 0.568887 0.354847
vt 0.841699 0.484774
vt 0.876089 0.483891
vt 0.650017 0.704126
vt 0.776129 0.475824
vt 0.749429 0.485638
vt 0.901802 0.486588
vt 0.499576 0.487247
vt 0.570147 0.293156
vt 0.588073 0.182374
vt 0.942662 0.498157
vt 0.483387 0.512880
vt 0.701470 0.495634
vt 0.459739 0.308828
vt 0.509362 0.296565
vt 0.587100 0.142653
vt 0.447630 0.543982
vt 0.486182 0.379515
vt 0.661124 0.507450
vt 0.546116 0.119145
vt 0.751694 0.678778
vt 0.417431 0.563841
vt 0.468596 0.272362
vt 0.601517 0.516006
vt 0.504428 0.633807
vt 0.443276 0.507074
vt 0.544279 0.212125
vt 0.516502 0.088812
vt 0.363614 0.568283
vt 0.571821 0.521948
vt 0.442237 0.176689
vt 0.926619 0.638198
vt 0.332847 0.565748
vt 0.498801 0.062519
vt 0.526136 0.547868
vt 0.783069 0.783164
vt 0.941476 0.751422
vt 0.456277 0.613750
vt 0.281499 0.568142
vt 0.474175 0.581383
vt 0.519688 0.756375
vt 0.631463 0.769382
vt 0.222477 0.557108
vt 0.472439 0.067180
vt 0.369549 0.336013
vt 0.390591 0.518089
vt 0.701607 0.705760
vt 0.279775 0.452184
vt 0.187071 0.558659
vt 0.403493 0.700751
vt 0.427990 0.054417
vt 0.146930 0.565867
vt 0.376890 0.706229
vt 0.397463 0.277911
vt 0.419345 0.094690
vt 0.651770 0.823931
vt 0.321292 0.024132
vt 0.381560 0.750018
vt 0.577068 0.807951
vt 0.388911 0.037470
vt 0.272215 0.025423
vt 0.145091 0.397519
vt 0.099333 0.469488
vt 0.351862 0.034803
vt 0.365172 0.136687
vt 0.307554 0.255101
vt 0.290691 0.282550
vt 0.405631 0.799991
vt 0.199229 0.314725
vt 0.219041 0.039442
vt 0.177520 0.084591
vt 0.403790 0.837669
vt 0.367723 0.310075
vt 0.134135 0.100440
vt 0.082626 0.385453
vt 0.096755 0.133044
vt 0.436781 0.895069
vt 0.254118 0.146892
vt 0.072730 0.163652
vt 0.272008 0.210703
vt 0.510440 0.961184
vt 0.051640 0.323402
vt 0.031377 0.208660
vt 0.582994 0.906119
vt 0.024940 0.245088
vt 0.141591 0.226287
vt 0.550563 0.965492
vt 0.042667 0.273997
vt 0.598395 0.968652
vt 0.467693 0.940418
vt 0.671915 0.980671
vt 0.052783 0.378228
vt 0.713011 0.972945
vt 0.764354 0.958569
vt 0.077641 0.437546
vt 0.805791 0.956083
vt 0.836664 0.908194
vt 0.075029 0.467629
vt 0.382583 0.790049
vt 0.881028 0.867837
vt 0.122746 0.506403
vt 0.916476 0.831852
vt 0.157246 0.543700
vt 0.942154 0.816197
vt 0.954411 0.785452
vt 0.973745 0.751404
vt 0.973868 0.712154
vt 0.955996 0.688072
vt 0.966340 0.654464
vt 0.960877 0.613905
vt 0.926834 0.572572
vt 0.930977 0.528107
vt 0.581113 0.212541
vn -0.143429 -0.305752 0.941246
vn -0.143429 -0.305752 0.941246
vn -0.143429 -0.305752 0.941246
vn 0.649736 -0.008249 0.760115
vn 0.649736 -0.008249 0.760115
vn 0.649736 -0.008249 0.760115
vn 0.244620 0.032115 0.969087
vn 0.244620 0.032115 0.969087
vn 0.244620 0.032115 0.969087
vn -0.153676 -0.394874 0.905792
vn -0.153676 -0.394874 0.905792
vn -0.153676 -0.394874 0.905792
vn 0.165225 0.115891 0.979423
vn 0.165225 0.115891 0.979423
vn 0.165225 0.115891 0.979423
vn -0.136124 0.136052 0.981305
vn -0.136124 0.136052 0.981305
vn -0.136124 0.136052 0.981305
vn 0.148050 0.285116 0.946990
vn 0.148050 0.285116 0.946990
vn 0.148050 0.285116 0.946990
vn 0.216880 0.175720 0.960253
vn 0.216880 0.175720 0.960253
vn 0.216880 0.175720 0.960253
vn 0.186039 0.208107 0.960251
vn 0.186039 0.208107 0.960251
vn 0.186039 0.208107 0.960251
vn 0.155835 0.272969 0.949317
vn 0.155835 0.272969 0.949317
vn 0.155835 0.272969 0.949317
vn -0.230951 -0.076511 0.969953
vn -0.230951 -0.076511 0.969953
vn -0.230951 -0.076511 0.969953
vn -0.115607 -0.545906 0.829832
vn -0.115607 -0.545906 0.829832
vn -0.115607 -0.545906 0.829832
vn -0.322557 -0.234456 0.917054
vn -0.322557 -0.234456 0.917054
vn -0.322557 -0.234456 0.917054
vn -0.321557 -0.373992 0.869903
vn -0.321557 -0.373992 0.869903
vn -0.321557 -0.373992 0.869903
vn -0.237419 -0.416436 0.877618
vn -0.237419 -0.416436 0.877618
vn -0.237419 -0.416436 0.877618
vn -0.648582 -0.159566 0.744231
vn -0.648582 -0.159566 0.744231
vn -0.648582 -0.159566 0.744231
vn 0.264537 0.155619 0.951737
vn 0.264537 0.155619 0.951737
vn 0.264537 0.155619 0.951737
vn 0.192083 0.163133 0.967725
vn 0.192083 0.163133 0.967725
vn 0.192083 0.163133 0.967725
vn -0.207088 -0.399244 0.893151
vn -0.207088 -0.399244 0.893151
vn -0.207088 -0.399244 0.893151
vn 0.189412 0.182491 0.964790
vn 0.189412 0.182491 0.964790
vn 0.189412 0.182491 0.964790
vn -0.285999 -0.209907 0.934956
vn -0.285999 -0.209907 0.934956
vn -0.285999 -0.209907 0.934956
vn -0.193840 -0.328557 0.924379
vn -0.193840 -0.328557 0.924379
vn -0.193840 -0.328557 0.924379
vn -0.183802 -0.330902 0.925592
vn -0.183802 -0.330902 0.925592
vn -0.183802 -0.330902 0.925592
vn -0.274233 0.417025 0.866537
vn -0.274233 0.417025 0.866537
vn -0.274233 0.417025 0.866537
vn 0.246878 0.176080 0.952915
vn 0.246878 0.176080 0.952915
vn 0.246878 0.176080 0.952915
vn -0.355659 -0.169979 0.919029
vn -0.355659 -0.169979 0.919029
vn -0.355659 -0.169979 0.919029
vn 0.238761 0.221176 0.945555
vn 0.238761 0.221176 0.945555
vn 0.238761 0.221176 0.945555
vn 0.635368 0.171079 0.753020
vn 0.635368 0.171079 0.753020
vn 0.635368 0.171079 0.753020
vn 0.659941 0.139730 0.738209
vn 0.659941 0.139730 0.738209
vn 0.659941 0.139730 0.738209
vn -0.956363 0.003023 0.292167
vn -0.956363 0.003023 0.292167
vn -0.956363 0.003023 0.292167
vn 0.299891 -0.505954 0.808750
vn 0.299891 -0.505954 0.808750
vn 0.299891 -0.505954 0.808750
vn 0.391630 0.574106 0.719047
vn 0.391630 0.574106 0.719047
vn 0.391629 0.574106 0.719047
vn 0.621431 0.268403 0.736059
vn 0.621431 0.268403 0.736059
vn 0.621431 0.268403 0.736059
vn 0.414852 0.402611 0.815967
vn 0.414852 0.402610 0.815967
vn 0.414852 0.402611 0.815967
vn -0.962303 -0.132246 0.237665
vn -0.962303 -0.132246 0.237665
vn -0.962303 -0.132246 0.237665
vn -0.688143 -0.724780 -0.033969
vn -0.688143 -0.724780 -0.033969
vn -0.688143 -0.724780 -0.033969
vn 0.621207 0.272315 0.734810
vn 0.621207 0.272316 0.734810
vn 0.621207 0.272316 0.734810
vn 0.640440 0.143977 0.754392
vn 0.640440 0.143977 0.754392
vn 0.640440 0.143977 0.754392
vn -0.819085 -0.561742 0.116387
vn -0.819085 -0.561742 0.116387
vn -0.819085 -0.561742 0.116387
vn 0.044683 0.889448 0.454847
vn 0.044683 0.889448 0.454847
vn 0.044683 0.889448 0.454847
vn 0.450921 0.478159 0.753680
vn 0.450921 0.478159 0.753680
vn 0.450921 0.478159 0.753680
vn 0.594461 0.062972 0.801655
vn 0.594461 0.062972 0.801655
vn 0.594461 0.062972 0.801655
vn 0.610812 0.067036 0.788933
vn 0.610812 0.067036 0.788933
vn 0.610812 0.067036 0.788933
vn -0.175723 -0.941367 0.288010
vn -0.175723 -0.941367 0.288010
vn -0.175723 -0.941367 0.288010
vn 0.010971 0.762781 0.646564
vn 0.010971 0.762781 0.646564
vn 0.010971 0.762781 0.646564
vn 0.449144 0.449171 0.772343
vn 0.449145 0.449171 0.772344
vn 0.449145 0.449171 0.772344
vn 0.638671 0.172414 0.749915
vn 0.638671 0.172414 0.749915
vn 0.638671 0.172414 0.749915
vn 0.652300 0.147907 0.743390
vn 0.652300 0.147907 0.743390
vn 0.652300 0.147907 0.743390
vn 0.294079 0.865130 0.406285
vn 0.294079 0.865130 0.406285
vn 0.294079 0.865130 0.406285
vn -0.673397 -0.658140 0.336732
vn -0.673397 -0.658140 0.336732
vn -0.673397 -0.658140 0.336732
vn -0.882694 -0.454393 0.119909
vn -0.882694 -0.454393 0.119909
vn -0.882694 -0.454393 0.119909
vn -0.025317 -0.965792 0.258081
vn -0.025317 -0.965792 0.258081
vn -0.025317 -0.965792 0.258081
vn 0.238553 0.864709 0.442007
vn 0.238553 0.864709 0.442007
vn 0.238553 0.864709 0.442007
vn 0.657387 0.158261 0.736747
vn 0.657387 0.158261 0.736747
vn 0.657387 0.158261 0.736747
vn 0.620957 0.163197 0.766668
vn 0.620957 0.163197 0.766668
vn 0.620957 0.163197 0.766668
vn 0.658741 0.156473 0.735918
vn 0.658741 0.156473 0.735918
vn 0.658741 0.156473 0.735918
vn 0.433459 0.536550 0.724035
vn 0.433459 0.536550 0.724035
vn 0.433459 0.536550 0.724035
vn -0.872983 -0.484709 0.054393
vn -0.872983 -0.484709 0.054393
vn -0.872983 -0.484709 0.054393
vn 0.117574 -0.901477 0.416553
vn 0.117574 -0.901477 0.416553
vn 0.117574 -0.901477 0.416553
vn -0.657333 -0.680679 0.323403
vn -0.657333 -0.680679 0.323403
vn -0.657333 -0.680679 0.323403
vn -0.986322 0.157229 -0.049476
vn -0.986322 0.157229 -0.049476
vn -0.986322 0.157229 -0.049476
vn -0.956755 -0.271095 -0.105486
vn -0.956755 -0.271095 -0.105486
vn -0.956755 -0.271095 -0.105486
vn -0.920032 -0.374114 -0.116537
vn -0.920032 -0.374114 -0.116537
vn -0.920032 -0.374114 -0.116537
vn -0.957912 -0.171092 -0.230506
vn -0.957912 -0.171092 -0.230506
vn -0.957912 -0.171092 -0.230506
vn -0.159789 -0.936458 0.312271
vn -0.159789 -0.936458 0.312271
vn -0.159789 -0.936458 0.312271
vn 0.018156 -0.977847 0.208530
vn 0.018156 -0.977847 0.208530
vn 0.018156 -0.977847 0.208530
vn -0.312596 0.917115 0.247354
vn -0.312596 0.917115 0.247354
vn -0.312596 0.917115 0.247354
vn -0.773820 0.633355 -0.008033
vn -0.773820 0.633355 -0.008033
vn -0.773820 0.633355 -0.008033
vn -0.878244 -0.377810 -0.293166
vn -0.878244 -0.377810 -0.293166
vn -0.878244 -0.377810 -0.293166
vn 0.182954 0.875531 0.447184
vn 0.182954 0.875531 0.447184
vn 0.182954 0.875531 0.447184
vn 0.678865 0.354203 0.643182
vn 0.678865 0.354203 0.643182
vn 0.678865 0.354203 0.643182
vn -0.831447 -0.487582 -0.266385
vn -0.831447 -0.487582 -0.266385
vn -0.831447 -0.487582 -0.266385
vn 0.575553 0.519571 0.631493
vn 0.575554 0.519571 0.631494
vn 0.575553 0.519571 0.631494
vn -0.884850 -0.376722 -0.274083
vn -0.884850 -0.376722 -0.274083
vn -0.884850 -0.376722 -0.274083
vn 0.265627 0.888315 0.374619
vn 0.265627 0.888315 0.374619
vn 0.265627 0.888315 0.374619
vn -0.910457 -0.379769 -0.163841
vn -0.910457 -0.379769 -0.163841
vn -0.910457 -0.379769 -0.163841
vn 0.993203 -0.109186 0.040317
vn 0.993203 -0.109186 0.040317
vn 0.993203 -0.109186 0.040317
vn -0.856405 -0.475633 -0.200858
vn -0.856405 -0.475633 -0.200858
vn -0.856405 -0.475633 -0.200858
vn -0.832875 -0.455335 -0.314627
vn -0.832875 -0.455335 -0.314627
vn -0.832875 -0.455335 -0.314627
vn -0.816146 -0.246788 -0.522496
vn -0.816146 -0.246788 -0.522496
vn -0.816146 -0.246788 -0.522496
vn -0.060969 -0.965852 -0.251817
vn -0.060969 -0.965852 -0.251817
vn -0.060969 -0.965852 -0.251817
vn -0.936272 -0.180026 -0.301639
vn -0.936272 -0.180026 -0.301639
vn -0.936272 -0.180026 -0.301639
vn 0.883344 0.466501 -0.045600
vn 0.883345 0.466501 -0.045600
vn 0.883345 0.466501 -0.045600
vn -0.183461 -0.929463 -0.320063
vn -0.183461 -0.929463 -0.320063
vn -0.183461 -0.929463 -0.320063
vn 0.011200 -0.999629 -0.024843
vn 0.011200 -0.999629 -0.024843
vn 0.011200 -0.999629 -0.024843
vn 0.208543 0.930026 -0.302593
vn 0.208543 0.930026 -0.302593
vn 0.208543 0.930026 -0.302593
vn 0.063740 0.972357 -0.224631
vn 0.063740 0.972357 -0.224631
vn 0.063740 0.972357 -0.224631
vn -0.797144 -0.406868 -0.446116
vn -0.797144 -0.406868 -0.446116
vn -0.797144 -0.406868 -0.446116
vn 0.908866 0.414960 -0.042070
vn 0.908866 0.414960 -0.042070
vn 0.908866 0.414960 -0.042070
vn -0.122161 -0.888924 -0.441464
vn -0.122161 -0.888924 -0.441464
vn -0.122161 -0.888924 -0.441464
vn 0.186661 0.960184 -0.207858
vn 0.186661 0.960184 -0.207858
vn 0.186661 0.960184 -0.207858
vn -0.098408 -0.906247 -0.411135
vn -0.098408 -0.906247 -0.411135
vn -0.098408 -0.906247 -0.411135
vn 0.538047 -0.695831 -0.475736
vn 0.538047 -0.695831 -0.475736
vn 0.538047 -0.695831 -0.475736
vn -0.806063 0.481814 -0.343683
vn -0.806063 0.481814 -0.343683
vn -0.806063 0.481814 -0.343683
vn 0.242433 0.931830 -0.270035
vn 0.242433 0.931830 -0.270035
vn 0.242433 0.931830 -0.270035
vn 0.311510 0.913410 -0.261999
vn 0.311510 0.913410 -0.261999
vn 0.311510 0.913410 -0.261999
vn -0.136626 -0.894731 -0.425195
vn -0.136626 -0.894731 -0.425195
vn -0.136626 -0.894731 -0.425195
vn 0.279538 0.911552 -0.301548
vn 0.279538 0.911552 -0.301548
vn 0.279538 0.911552 -0.301548
vn -0.920254 0.353714 0.167387
vn -0.920254 0.353714 0.167387
vn -0.920254 0.353714 0.167387
vn -0.195323 -0.873483 -0.445955
vn -0.195323 -0.873483 -0.445955
vn -0.195323 -0.873483 -0.445955
vn -0.819666 -0.418363 -0.391305
vn -0.819666 -0.418363 -0.391305
vn -0.819666 -0.418363 -0.391305
vn -0.862161 -0.375913 -0.339659
vn -0.862161 -0.375913 -0.339659
vn -0.862161 -0.375913 -0.339659
vn -0.067253 -0.933363 -0.352578
vn -0.067253 -0.933363 -0.352578
vn -0.067253 -0.933363 -0.352578
vn -0.054705 -0.806892 -0.588161
vn -0.054705 -0.806892 -0.588161
vn -0.054705 -0.806892 -0.588161
vn -0.842238 -0.394001 -0.367966
vn -0.842238 -0.394001 -0.367966
vn -0.842238 -0.394001 -0.367966
vn 0.225576 0.880861 -0.416172
vn 0.225576 0.880861 -0.416172
vn 0.225576 0.880861 -0.416172
vn 0.291400 0.894083 -0.340150
vn 0.291400 0.894083 -0.340150
vn 0.291400 0.894083 -0.340150
vn -0.067769 -0.890694 -0.449524
vn -0.067769 -0.890694 -0.449524
vn -0.067769 -0.890694 -0.449524
vn 0.247546 0.934688 -0.255105
vn 0.247546 0.934688 -0.255105
vn 0.247546 0.934689 -0.255105
vn 0.851980 0.123995 -0.508679
vn 0.851980 0.123995 -0.508679
vn 0.851980 0.123995 -0.508679
vn -0.080687 -0.884890 -0.458758
vn -0.080687 -0.884890 -0.458758
vn -0.080687 -0.884890 -0.458758
vn 0.502393 -0.673389 -0.542355
vn 0.502393 -0.673389 -0.542355
vn 0.502393 -0.673389 -0.542355
vn 0.166537 0.933219 -0.318383
vn 0.166537 0.933219 -0.318383
vn 0.166537 0.933219 -0.318383
vn -0.152183 -0.866958 -0.474578
vn -0.152183 -0.866958 -0.474578
vn -0.152183 -0.866958 -0.474578
vn 0.294972 0.863914 -0.408222
vn 0.294972 0.863914 -0.408222
vn 0.294972 0.863914 -0.408222
vn -0.139814 -0.888838 -0.436371
vn -0.139814 -0.888838 -0.436371
vn -0.139814 -0.888838 -0.436371
vn -0.946815 -0.267786 -0.178416
vn -0.946815 -0.267786 -0.178416
vn -0.946815 -0.267786 -0.178416
vn 0.704814 0.062231 -0.706657
vn 0.704814 0.062231 -0.706657
vn 0.704814 0.062231 -0.706657
vn -0.318227 -0.727429 -0.607930
vn -0.318227 -0.727429 -0.607930
vn -0.318227 -0.727429 -0.607930
vn 0.304979 0.908397 -0.286013
vn 0.304979 0.908397 -0.286013
vn 0.304979 0.908397 -0.286013
vn 0.197896 0.882778 -0.426074
vn 0.197896 0.882779 -0.426074
vn 0.197896 0.882778 -0.426074
vn 0.775732 0.137208 -0.615966
vn 0.775732 0.137208 -0.615966
vn 0.775732 0.137208 -0.615966
vn -0.173849 -0.797409 -0.577855
vn -0.173849 -0.797408 -0.577855
vn -0.173849 -0.797409 -0.577855
vn 0.798975 0.100487 -0.592909
vn 0.798975 0.100487 -0.592909
vn 0.798975 0.100487 -0.592909
vn 0.777140 0.108803 -0.619851
vn 0.777140 0.108803 -0.619851
vn 0.777140 0.108803 -0.619851
vn -0.697084 0.597103 -0.396917
vn -0.697084 0.597103 -0.396917
vn -0.697084 0.597103 -0.396917
vn -0.229107 -0.644600 -0.729384
vn -0.229107 -0.644600 -0.729384
vn -0.229107 -0.644600 -0.729384
vn -0.334265 -0.418306 -0.844563
vn -0.334265 -0.418306 -0.844563
vn -0.334265 -0.418306 -0.844563
vn 0.659756 0.069861 -0.748225
vn 0.659756 0.069861 -0.748225
vn 0.659756 0.069861 -0.748225
vn -0.056052 -0.775314 -0.629083
vn -0.056052 -0.775314 -0.629083
vn -0.056052 -0.775314 -0.629083
vn 0.686678 0.019606 -0.726698
vn 0.686678 0.019606 -0.726698
vn 0.686678 0.019606 -0.726698
vn -0.147863 -0.658131 -0.738241
vn -0.147863 -0.658131 -0.738241
vn -0.147863 -0.658131 -0.738241
vn 0.610187 0.104093 -0.785389
vn 0.610187 0.104093 -0.785389
vn 0.610187 0.104093 -0.785389
vn 0.074697 0.324228 -0.943025
vn 0.074697 0.324228 -0.943025
vn 0.074697 0.324228 -0.943025
vn 0.194118 -0.473114 -0.859349
vn 0.194118 -0.473114 -0.859349
vn 0.194118 -0.473114 -0.859349
vn -0.017242 0.219121 -0.975545
vn -0.017242 0.219121 -0.975545
vn -0.017242 0.219121 -0.975545
vn 0.096099 0.285659 -0.953501
vn 0.096099 0.285659 -0.953501
vn 0.096099 0.285659 -0.953501
vn 0.094876 0.293642 -0.951196
vn 0.094876 0.293642 -0.951196
vn 0.094876 0.293642 -0.951196
vn -0.178535 -0.363581 -0.914294
vn -0.178535 -0.363581 -0.914294
vn -0.178535 -0.363581 -0.914294
vn -0.362019 -0.098987 -0.926900
vn -0.362019 -0.098987 -0.926900
vn -0.362019 -0.098987 -0.926900
vn -0.451875 0.209819 -0.867055
vn -0.451875 0.209819 -0.867055
vn -0.451875 0.209819 -0.867055
vn -0.217963 -0.263113 -0.939821
vn -0.217963 -0.263112 -0.939821
vn -0.217963 -0.263112 -0.939821
vn -0.196913 -0.373961 -0.906299
vn -0.196913 -0.373961 -0.906299
vn -0.196913 -0.373961 -0.906299
vn 0.852726 0.372986 -0.365704
vn 0.852726 0.372986 -0.365704
vn 0.852726 0.372986 -0.365704
vn -0.054162 0.298726 -0.952801
vn -0.054162 0.298726 -0.952801
vn -0.054162 0.298726 -0.952801
vn 0.118202 0.451368 -0.884475
vn 0.118202 0.451367 -0.884475
vn 0.118202 0.451368 -0.884475
s off
g Rock_NN4_uved_Group2
usemtl Rock_NN4_uved_defaultMat
f 8/6/1 28/35/2 6/1/3
f 9/7/4 6/1/5 39/50/6
f 11/9/7 10/8/8 7/5/9
f 8/6/10 12/10/11 17/114/12
f 8/6/13 6/1/14 7/5/15
f 15/18/16 8/3/17 21/21/18
f 7/2/19 27/29/20 8/3/21
f 11/9/22 7/5/23 6/1/24
f 8/3/25 27/29/26 21/21/27
f 10/11/28 27/29/29 7/2/30
f 8/3/31 15/18/32 12/4/33
f 6/1/34 28/35/35 19/24/36
f 15/18/37 13/12/38 12/4/39
f 12/10/40 14/115/41 17/114/42
f 13/14/43 14/115/44 12/10/45
f 17/114/46 28/35/47 8/6/48
f 11/15/49 27/29/50 10/11/51
f 6/1/52 16/16/53 11/9/54
f 13/116/55 31/30/56 14/13/57
f 27/29/58 11/15/59 16/20/60
f 13/12/61 15/18/62 31/30/63
f 31/30/64 18/23/65 14/13/66
f 18/23/67 17/19/68 14/13/69
f 21/21/70 22/17/71 15/18/72
f 16/16/73 6/1/74 2/22/75
f 18/113/76 28/35/77 17/114/78
f 27/29/79 16/20/80 2/25/81
f 24/28/82 2/22/83 6/1/84
f 9/7/85 24/28/86 6/1/87
f 20/26/88 15/18/89 22/17/90
f 39/50/91 6/1/92 19/24/93
f 27/29/94 2/25/95 23/32/96
f 2/22/97 24/28/98 23/27/99
f 27/29/100 23/32/101 37/49/102
f 20/26/103 31/30/104 15/18/105
f 28/35/106 18/113/107 26/112/108
f 25/33/109 23/27/110 24/28/111
f 24/28/112 9/7/113 41/45/114
f 28/35/115 26/112/116 30/111/117
f 21/21/118 38/48/119 22/17/120
f 23/32/121 25/36/122 37/49/123
f 25/33/124 24/28/125 32/38/126
f 39/50/127 41/45/128 9/7/129
f 19/24/130 28/35/131 34/39/132
f 38/48/133 27/29/134 37/49/135
f 25/36/136 32/42/137 37/49/138
f 32/38/139 24/28/140 35/43/141
f 36/44/142 24/28/143 41/45/144
f 21/21/145 27/29/146 38/48/147
f 26/31/148 44/47/149 30/37/150
f 30/111/151 40/40/152 28/35/153
f 19/24/154 34/39/155 39/50/156
f 42/51/157 37/49/158 35/46/159
f 36/44/160 43/53/161 24/28/162
f 35/43/163 24/28/164 33/41/165
f 24/28/166 43/53/167 33/41/168
f 37/49/169 32/42/170 35/46/171
f 31/30/172 44/47/173 18/23/174
f 26/31/175 18/23/176 44/47/177
f 40/40/178 30/111/179 44/110/180
f 20/26/181 22/17/182 46/57/183
f 31/30/184 20/26/185 29/34/186
f 31/30/187 29/34/188 44/47/189
f 20/26/190 46/57/191 29/34/192
f 34/39/193 28/35/194 40/40/195
f 34/39/196 41/45/197 39/50/198
f 38/48/199 63/76/200 22/17/201
f 22/17/202 63/76/203 46/57/204
f 44/110/205 45/109/206 40/40/207
f 38/48/208 37/49/209 42/51/210
f 43/55/211 47/106/212 33/52/213
f 44/47/214 48/58/215 45/54/216
f 47/106/217 35/46/218 33/52/219
f 45/109/220 52/108/221 40/40/222
f 35/46/223 47/106/224 42/51/225
f 48/58/226 44/47/227 29/34/228
f 36/44/229 41/45/230 51/62/231
f 48/58/232 52/63/233 45/54/234
f 52/108/235 55/107/236 40/40/237
f 29/34/238 57/68/239 48/58/240
f 55/107/241 50/105/242 40/40/243
f 46/57/244 61/69/245 29/34/246
f 43/53/247 58/71/248 47/56/249
f 40/40/250 50/105/251 34/39/252
f 41/45/253 34/39/254 49/59/255
f 47/56/256 58/71/257 53/61/258
f 62/70/259 63/76/260 38/48/261
f 29/34/262 61/69/263 57/68/264
f 43/53/265 36/44/266 58/71/267
f 54/103/268 34/39/269 50/105/270
f 42/51/271 62/70/272 38/48/273
f 50/60/274 55/67/275 54/64/276
f 49/59/277 51/62/278 41/45/279
f 63/76/280 61/69/281 46/57/282
f 47/106/283 56/65/284 42/51/285
f 53/61/286 58/71/287 60/102/288
f 54/103/289 59/100/290 34/39/291
f 47/106/292 53/104/293 56/65/294
f 57/68/295 74/83/296 48/58/297
f 34/39/298 67/96/299 49/59/300
f 48/58/301 74/83/302 52/63/303
f 52/63/304 74/83/305 55/67/306
f 55/67/307 59/73/308 54/64/309
f 67/96/310 5/87/311 49/59/312
f 70/81/313 55/67/314 74/83/315
f 3/98/316 60/66/317 58/101/318
f 66/72/319 62/70/320 42/51/321
f 65/97/322 67/96/323 34/39/324
f 60/66/325 56/65/326 53/104/327
f 36/44/328 51/62/329 58/71/330
f 59/100/331 64/99/332 34/39/333
f 49/59/334 5/87/335 51/62/336
f 66/72/337 42/51/338 56/65/339
f 55/67/340 64/74/341 59/73/342
f 60/66/343 3/98/344 56/65/345
f 64/99/346 65/97/347 34/39/348
f 74/83/349 57/68/350 61/69/351
f 51/62/352 3/75/353 58/71/354
f 55/67/355 70/81/356 64/74/357
f 68/78/358 56/65/359 3/98/360
f 66/72/361 56/65/362 68/78/363
f 69/95/364 68/78/365 3/98/366
f 64/74/367 67/79/368 65/77/369
f 5/87/370 69/80/371 3/75/372
f 5/87/373 3/75/374 51/62/375
f 62/70/376 61/69/377 63/76/378
f 4/82/379 64/74/380 70/81/381
f 64/74/382 4/82/383 67/79/384
f 68/78/385 69/95/386 72/85/387
f 67/96/388 73/92/389 5/87/390
f 71/84/391 72/93/392 69/80/393
f 73/92/394 67/96/395 4/94/396
f 5/87/397 71/84/398 69/80/399
f 68/78/400 1/89/401 66/72/402
f 73/92/403 75/90/404 5/87/405
f 62/70/406 66/72/407 74/83/408
f 68/78/409 72/85/410 1/89/411
f 71/91/412 1/89/413 72/85/414
f 70/81/415 1/89/416 4/82/417
f 75/88/418 73/86/419 4/82/420
f 62/70/421 74/83/422 61/69/423
f 74/83/424 1/89/425 70/81/426
f 1/89/427 75/88/428 4/82/429
f 71/84/430 5/87/431 75/90/432
f 74/83/433 66/72/434 1/89/435
f 1/89/436 71/91/437 75/88/438
