# 3ds Max Wavefront OBJ Exporter v0.97b - (c)2007 guruware
# File Created: 30.12.2015 03:14:53

mtllib Plant_1_model.mtl

#
# object Plane001
#

v  -54.2291 -2.8594 15.6350
v  -54.2291 6.8067 13.5127
v  -63.2857 6.8067 11.1421
v  -63.2857 -2.8594 13.2644
v  -46.2682 27.1270 14.1689
v  -54.2291 27.1270 16.5395
v  -54.2291 16.3815 14.1296
v  -46.2682 16.3815 11.7590
v  -46.2682 6.8067 11.1421
v  -46.2682 -2.8594 13.2644
v  -63.2857 27.1270 14.1689
v  -63.2857 16.3815 11.7590
# 12 vertices

vn 0.0157 0.2144 0.9766
vn 0.0171 0.0777 0.9968
vn -0.2526 0.0718 0.9649
vn -0.2477 0.2078 0.9463
vn 0.2790 -0.2101 0.9370
vn 0.0157 -0.2188 0.9756
vn 0.0168 -0.1439 0.9895
vn 0.2828 -0.1343 0.9497
vn 0.2847 0.0709 0.9560
vn 0.2793 0.2059 0.9379
vn -0.2475 -0.2120 0.9454
vn -0.2509 -0.1358 0.9584
# 12 vertex normals

vt 0.4947 0.0000 0.0000
vt 0.4947 0.3224 0.0000
vt 0.1929 0.3224 0.0000
vt 0.1929 0.0000 0.0000
vt 0.7601 1.0000 0.0000
vt 0.4947 1.0000 0.0000
vt 0.4947 0.6417 0.0000
vt 0.7601 0.6417 0.0000
vt 0.7601 0.3224 0.0000
vt 0.7601 0.0000 0.0000
vt 0.1929 1.0000 0.0000
vt 0.1929 0.6417 0.0000
# 12 texture coords

g Plane001
usemtl Material__51
s 1
f 1/1/1 2/2/2 3/3/3 4/4/4 
f 5/5/5 6/6/6 7/7/7 8/8/8 
f 8/8/8 7/7/7 2/2/2 9/9/9 
f 10/10/10 9/9/9 2/2/2 1/1/1 
f 11/11/11 12/12/12 7/7/7 6/6/6 
f 12/12/12 3/3/3 2/2/2 7/7/7 
# 6 polygons

#
# object Plane002
#

v  -54.1282 -1.2925 15.1774
v  -55.3506 7.9621 12.4838
v  -62.5977 9.1851 18.3002
v  -61.3568 -0.1639 21.0358
v  -45.6461 0.0085 14.4983
v  -46.8870 9.3575 11.7627
v  -58.0507 15.5058 6.1937
v  -65.6420 17.7543 11.2101
v  -49.9313 17.9266 4.6727
v  -61.6108 19.7287 -2.2506
v  -68.8395 20.8573 3.6078
v  -53.1288 21.0297 -2.9297
# 12 vertices

vn 0.3497 0.3045 0.8860
vn 0.3130 0.5010 0.8068
vn 0.5990 0.4758 0.6441
vn 0.6291 0.2941 0.7196
vn 0.0339 0.2841 0.9582
vn -0.0011 0.4642 0.8857
vn 0.2110 0.8116 0.5447
vn 0.4753 0.7824 0.4023
vn -0.1131 0.7743 0.6227
vn 0.1499 0.9153 0.3737
vn 0.3319 0.9140 0.2335
vn -0.1345 0.8781 0.4591
# 12 vertex normals

vt 0.4899 0.0000 0.0000
vt 0.4899 0.3232 0.0000
vt 0.1929 0.3232 0.0000
vt 0.1929 0.0000 0.0000
vt 0.7601 0.0000 0.0000
vt 0.7601 0.3232 0.0000
vt 0.4899 0.6815 0.0000
vt 0.1929 0.6815 0.0000
vt 0.7601 0.6815 0.0000
vt 0.4899 1.0000 0.0000
vt 0.1929 1.0000 0.0000
vt 0.7601 1.0000 0.0000
# 12 texture coords

g Plane002
usemtl Material__51
s 1
f 13/13/13 14/14/14 15/15/15 16/16/16 
f 17/17/17 18/18/18 14/14/14 13/13/13 
f 19/19/19 20/20/20 15/15/15 14/14/14 
f 21/21/21 19/19/19 14/14/14 18/18/18 
f 22/22/22 23/23/23 20/20/20 19/19/19 
f 24/24/24 22/22/22 19/19/19 21/21/21 
# 6 polygons

#
# object Plane004
#

v  -51.4254 -2.6398 15.0165
v  -50.8999 8.7273 15.9009
v  -53.6566 7.9418 6.3958
v  -53.7917 -1.8682 5.9803
v  -55.3206 -2.5740 19.8800
v  -52.6803 7.2360 21.4624
v  -46.9758 16.2653 16.0539
v  -48.7941 18.3735 7.1042
v  -49.7532 17.6677 24.0800
v  -38.5608 22.9615 14.7474
v  -43.4857 23.7331 9.6693
v  -42.7859 22.2138 22.0885
# 12 vertices

vn -0.9796 0.0540 -0.1938
vn -0.9531 0.2992 -0.0448
vn -0.9449 0.1951 0.2627
vn -0.9673 0.0026 0.2535
vn -0.8449 0.1497 -0.5136
vn -0.9292 0.2988 -0.2174
vn -0.7710 0.6350 -0.0487
vn -0.7752 0.5229 0.3544
vn -0.7517 0.5737 -0.3252
vn -0.6761 0.7246 0.1335
vn -0.6549 0.3213 0.6840
vn -0.6050 0.7355 -0.3049
# 12 vertex normals

vt 0.4899 0.0000 0.0000
vt 0.4899 0.3232 0.0000
vt 0.1929 0.3232 0.0000
vt 0.1929 0.0000 0.0000
vt 0.7601 0.0000 0.0000
vt 0.7601 0.3232 0.0000
vt 0.4899 0.6815 0.0000
vt 0.1929 0.6815 0.0000
vt 0.7601 0.6815 0.0000
vt 0.4899 1.0000 0.0000
vt 0.1929 1.0000 0.0000
vt 0.7601 1.0000 0.0000
# 12 texture coords

g Plane004
usemtl Material__51
s 1
f 25/25/25 26/26/26 27/27/27 28/28/28 
f 29/29/29 30/30/30 26/26/26 25/25/25 
f 31/31/31 32/32/32 27/27/27 26/26/26 
f 33/33/33 31/31/31 26/26/26 30/30/30 
f 34/34/34 35/35/35 32/32/32 31/31/31 
f 36/36/36 34/34/34 31/31/31 33/33/33 
# 6 polygons

#
# object Plane005
#

v  -52.7031 -0.7430 16.3696
v  -55.5622 7.9527 19.6174
v  -48.5778 10.0578 21.0928
v  -45.6837 1.2751 17.7978
v  -57.6305 0.2735 10.6920
v  -60.5246 9.0562 13.9870
v  -59.5646 14.5297 26.2592
v  -53.1019 17.5356 28.5838
v  -65.0487 16.5341 21.4779
v  -63.8156 17.5967 34.7803
v  -56.7961 19.6148 36.2085
v  -68.7429 18.6132 29.1026
# 12 vertices

vn 0.3196 0.4184 -0.8479
vn 0.2510 0.6004 -0.7561
vn -0.0388 0.5439 -0.8871
vn 0.0287 0.3761 -0.9702
vn 0.5758 0.4177 -0.6358
vn 0.5138 0.5845 -0.5507
vn 0.0773 0.8691 -0.4859
vn -0.1839 0.8123 -0.6124
vn 0.3462 0.8528 -0.2716
vn -0.0201 0.9473 -0.3192
vn -0.2324 0.9204 -0.3779
vn 0.2282 0.9312 -0.1424
# 12 vertex normals

vt 0.4899 0.0000 0.0000
vt 0.4899 0.3232 0.0000
vt 0.1929 0.3232 0.0000
vt 0.1929 0.0000 0.0000
vt 0.7601 0.0000 0.0000
vt 0.7601 0.3232 0.0000
vt 0.4899 0.6815 0.0000
vt 0.1929 0.6815 0.0000
vt 0.7601 0.6815 0.0000
vt 0.4899 1.0000 0.0000
vt 0.1929 1.0000 0.0000
vt 0.7601 1.0000 0.0000
# 12 texture coords

g Plane005
usemtl Material__51
s 1
f 37/37/37 38/38/38 39/39/39 40/40/40 
f 41/41/41 42/42/42 38/38/38 37/37/37 
f 43/43/43 44/44/44 39/39/39 38/38/38 
f 45/45/45 43/43/43 38/38/38 42/42/42 
f 46/46/46 47/47/47 44/44/44 43/43/43 
f 48/48/48 46/46/46 43/43/43 45/45/45 
# 6 polygons

#
# object Plane006
#

v  -56.0870 -2.8594 13.1060
v  -54.0912 6.8067 13.8277
v  -48.7821 6.8067 6.1170
v  -50.7779 -2.8594 5.3953
v  -57.4154 27.1270 21.0910
v  -56.9376 27.1270 12.7984
v  -54.6714 16.3815 13.6179
v  -55.1492 16.3815 21.9105
v  -54.5690 6.8067 22.1203
v  -56.5648 -2.8594 21.3986
v  -51.6285 27.1270 5.0877
v  -49.3623 16.3815 5.9072
# 12 vertices

vn -0.9238 0.2144 -0.3173
vn -0.9432 0.0777 -0.3229
vn -0.8215 0.0718 -0.5656
vn -0.8057 0.2078 -0.5547
vn -0.9761 -0.2101 -0.0562
vn -0.9228 -0.2188 -0.3170
vn -0.9362 -0.1439 -0.3207
vn -0.9893 -0.1343 -0.0570
vn -0.9958 0.0709 -0.0574
vn -0.9769 0.2059 -0.0563
vn -0.8049 -0.2120 -0.5542
vn -0.8160 -0.1358 -0.5619
# 12 vertex normals

vt 0.4947 0.0000 0.0000
vt 0.4947 0.3224 0.0000
vt 0.1929 0.3224 0.0000
vt 0.1929 0.0000 0.0000
vt 0.7601 1.0000 0.0000
vt 0.4947 1.0000 0.0000
vt 0.4947 0.6417 0.0000
vt 0.7601 0.6417 0.0000
vt 0.7601 0.3224 0.0000
vt 0.7601 0.0000 0.0000
vt 0.1929 1.0000 0.0000
vt 0.1929 0.6417 0.0000
# 12 texture coords

g Plane006
usemtl Material__51
s 1
f 49/49/49 50/50/50 51/51/51 52/52/52 
f 53/53/53 54/54/54 55/55/55 56/56/56 
f 56/56/56 55/55/55 50/50/50 57/57/57 
f 58/58/58 57/57/57 50/50/50 49/49/49 
f 59/59/59 60/60/60 55/55/55 54/54/54 
f 60/60/60 51/51/51 50/50/50 55/55/55 
# 6 polygons

