# 3ds Max Wavefront OBJ Exporter v0.97b - (c)2007 guruware
# File Created: 30.12.2015 13:53:08

mtllib Plant_1_var_model.mtl

#
# object Plane007
#

v  -44.3857 -2.8594 -57.1272
v  -44.3857 5.8857 -56.1109
v  -51.4128 5.8857 -56.1109
v  -50.3026 -1.8919 -57.1272
v  -35.8979 17.1523 -70.5278
v  -44.1384 17.1523 -70.5278
v  -44.3857 14.0843 -60.9709
v  -36.1452 14.0843 -60.9709
v  -38.0493 5.8857 -56.1109
v  -37.6552 -1.1612 -57.1272
v  -52.9153 17.1523 -70.5278
v  -53.1626 14.0843 -60.9709
# 12 vertices

vn 0.0083 -0.1201 0.9927
vn 0.0037 0.2047 0.9788
vn -0.0038 0.2387 0.9711
vn -0.0217 -0.1326 0.9909
vn 0.0000 0.9521 0.3057
vn 0.0000 0.7819 0.6235
vn 0.0000 0.7992 0.6011
vn 0.0000 0.2091 0.9779
vn 0.0175 -0.1263 0.9918
vn 0.0000 0.7943 0.6075
# 10 vertex normals

vt 0.4854 0.0000 0.0000
vt 0.4854 0.2916 0.0000
vt 0.1929 0.2916 0.0000
vt 0.1929 0.0000 0.0000
vt 0.7601 1.0000 0.0000
vt 0.4854 1.0000 0.0000
vt 0.4854 0.5650 0.0000
vt 0.7601 0.5650 0.0000
vt 0.7601 0.2916 0.0000
vt 0.7601 0.0000 0.0000
vt 0.1929 1.0000 0.0000
vt 0.1929 0.5650 0.0000
# 12 texture coords

g Plane007
usemtl Material__51
s 1
f 1/1/1 2/2/2 3/3/3 4/4/4 
f 5/5/5 6/6/5 7/7/6 8/8/7 
f 8/8/7 7/7/6 2/2/2 9/9/8 
f 10/10/9 9/9/8 2/2/2 1/1/1 
f 11/11/5 12/12/10 7/7/6 6/6/5 
f 12/12/10 3/3/3 2/2/2 7/7/6 
# 6 polygons

#
# object Plane008
#

v  -42.3077 -2.7649 -55.7696
v  -43.1779 5.0705 -55.5014
v  -44.1155 5.0705 -58.6291
v  -43.1322 -2.3399 -56.4788
v  -28.5937 15.1651 -52.0386
v  -27.5971 15.1651 -58.2628
v  -39.0166 12.4162 -56.7840
v  -36.8419 12.4162 -49.7282
v  -41.5057 5.0705 -50.0760
v  -41.1789 -1.8963 -53.9447
v  -31.5333 15.1651 -65.5126
v  -39.8845 12.4162 -62.3508
# 12 vertices

vn -0.7919 -0.0251 0.6101
vn -0.9360 0.2017 0.2884
vn -0.9017 0.3180 0.2931
vn -0.5997 0.1486 0.7863
vn -0.2574 0.9663 0.0055
vn -0.2292 0.9726 0.0377
vn -0.6056 0.7836 0.1386
vn -0.5744 0.7992 0.1770
vn -0.9248 0.2519 0.2850
vn -0.8662 -0.1414 0.4793
vn -0.2406 0.9657 0.0978
vn -0.5532 0.8272 0.0984
# 12 vertex normals

vt 0.4854 0.0000 0.0000
vt 0.4854 0.2916 0.0000
vt 0.1929 0.2916 0.0000
vt 0.1929 0.0000 0.0000
vt 0.7601 1.0000 0.0000
vt 0.4854 1.0000 0.0000
vt 0.4854 0.5650 0.0000
vt 0.7601 0.5650 0.0000
vt 0.7601 0.2916 0.0000
vt 0.7601 0.0000 0.0000
vt 0.1929 1.0000 0.0000
vt 0.1929 0.5650 0.0000
# 12 texture coords

g Plane008
usemtl Material__51
s 1
f 13/13/11 14/14/12 15/15/13 16/16/14 
f 17/17/15 18/18/16 19/19/17 20/20/18 
f 20/20/18 19/19/17 14/14/12 21/21/19 
f 22/22/20 21/21/19 14/14/12 13/13/11 
f 23/23/21 24/24/22 19/19/17 18/18/16 
f 24/24/22 15/15/13 14/14/12 19/19/17 
# 6 polygons

#
# object Plane009
#

v  -43.5670 -0.8461 -53.9897
v  -43.2224 8.4296 -55.0562
v  -39.4081 8.4296 -53.7913
v  -41.7125 -0.3633 -51.1915
v  -57.0159 20.3798 -42.8059
v  -51.4476 20.3798 -37.4040
v  -44.8699 15.4779 -49.9566
v  -51.7438 15.4779 -52.7501
v  -49.8712 8.4296 -57.2042
v  -46.9098 -0.7751 -57.0067
v  -41.3609 20.3798 -36.2486
v  -38.6469 15.4779 -46.8982
# 12 vertices

vn 0.6988 -0.2027 -0.6854
vn 0.3438 0.2948 -0.8924
vn 0.3620 0.3249 -0.8746
vn 0.8108 -0.3391 -0.4761
vn 0.2205 0.9317 -0.2909
vn 0.1471 0.9413 -0.3062
vn 0.2549 0.7808 -0.5724
vn 0.2266 0.7748 -0.5921
vn 0.2880 0.3519 -0.8915
vn 0.5459 -0.0386 -0.8370
vn 0.0824 0.9275 -0.3668
vn 0.2511 0.8059 -0.5382
# 12 vertex normals

vt 0.4854 0.0000 0.0000
vt 0.4854 0.2916 0.0000
vt 0.1929 0.2916 0.0000
vt 0.1929 0.0000 0.0000
vt 0.7601 1.0000 0.0000
vt 0.4854 1.0000 0.0000
vt 0.4854 0.5650 0.0000
vt 0.7601 0.5650 0.0000
vt 0.7601 0.2916 0.0000
vt 0.7601 0.0000 0.0000
vt 0.1929 1.0000 0.0000
vt 0.1929 0.5650 0.0000
# 12 texture coords

g Plane009
usemtl Material__51
s 1
f 25/25/23 26/26/24 27/27/25 28/28/26 
f 29/29/27 30/30/28 31/31/29 32/32/30 
f 32/32/30 31/31/29 26/26/24 33/33/31 
f 34/34/32 33/33/31 26/26/24 25/25/23 
f 35/35/33 36/36/34 31/31/29 30/30/28 
f 36/36/34 27/27/25 26/26/24 31/31/29 
# 6 polygons

