# 3ds Max Wavefront OBJ Exporter v0.97b - (c)2007 guruware
# File Created: 31.07.2015 23:42:17

mtllib PlantTexplane.mtl

#
# object Object290
#

v  16.938501 -0.288166 -4.491918
v  17.288626 -0.251691 -4.491918
v  16.882259 0.251691 -4.491918
v  17.232386 0.288166 -4.491918
# 4 vertices

vn 0.000000 -0.000000 1.000000
# 1 vertex normals

vt 0.752383 0.138842 0.000000
vt 0.908837 0.138842 0.000000
vt 0.908837 0.380077 0.000000
vt 0.752383 0.380077 0.000000
# 4 texture coords

g Object290
usemtl 01___Default23
s 1
f -4/-4/-1 -3/-3/-1 -1/-2/-1 -2/-1/-1 
# 1 polygons

#
# object Object293
#

v  17.271257 -0.269291 -4.157005
v  17.276140 -0.286753 -4.508558
v  17.271631 0.272819 -4.183927
v  17.276514 0.255357 -4.535480
# 4 vertices

vn 0.999904 -0.000000 0.013882
# 1 vertex normals

vt 0.752383 0.138842 0.000000
vt 0.908837 0.138842 0.000000
vt 0.908837 0.380077 0.000000
vt 0.752383 0.380077 0.000000
# 4 texture coords

g Object293
usemtl 01___Default23
s 1
f -4/-4/-1 -3/-3/-1 -1/-2/-1 -2/-1/-1 
# 1 polygons

#
# object Object294
#

v  17.619493 -0.287076 -4.494787
v  17.269609 -0.248756 -4.500360
v  17.678587 0.252476 -4.494787
v  17.328703 0.290796 -4.500360
# 4 vertices

vn 0.015736 -0.001724 -0.999875
# 1 vertex normals

vt 0.752383 0.138842 0.000000
vt 0.908837 0.138842 0.000000
vt 0.908837 0.380077 0.000000
vt 0.752383 0.380077 0.000000
# 4 texture coords

g Object294
usemtl 01___Default23
s 1
f -4/-4/-1 -3/-3/-1 -1/-2/-1 -2/-1/-1 
# 1 polygons

#
# object Object295
#

v  17.276314 -0.281326 -4.888525
v  17.267809 -0.256427 -4.537489
v  17.276314 0.260092 -4.926928
v  17.267807 0.284991 -4.575891
# 4 vertices

vn -0.999708 -0.001710 -0.024102
# 1 vertex normals

vt 0.752383 0.138842 0.000000
vt 0.908837 0.138842 0.000000
vt 0.908837 0.380077 0.000000
vt 0.752383 0.380077 0.000000
# 4 texture coords

g Object295
usemtl 01___Default23
s 1
f -4/-4/-1 -3/-3/-1 -1/-2/-1 -2/-1/-1 
# 1 polygons

#
# object Object296
#

v  17.383711 0.123456 -4.842710
v  17.521826 0.107476 -4.768698
v  17.189228 -0.160048 -4.541000
v  17.327343 -0.176029 -4.466987
v  17.462662 0.096787 -4.824323
v  17.268181 -0.186717 -4.522613
v  17.481298 0.096632 -4.695411
v  17.419060 0.081105 -4.746342
v  17.343182 0.112613 -4.769424
v  17.444201 0.063513 -4.633334
v  17.384367 0.051576 -4.687983
v  17.306086 0.079493 -4.707347
v  17.355768 -0.120132 -4.507960
v  17.296604 -0.130821 -4.563586
v  17.217651 -0.104152 -4.581974
v  17.393330 -0.031357 -4.558885
v  17.335556 -0.038975 -4.616446
v  17.255213 -0.015376 -4.632898
# 18 vertices

vn 0.218059 0.873037 0.436184
vn -0.047674 0.955829 0.290033
vn 0.014661 0.981201 0.192431
vn 0.249487 0.928412 0.275332
vn -0.578146 0.652799 0.489490
vn -0.597304 0.612648 0.517582
vn -0.321753 0.617283 0.717939
vn -0.301559 0.658664 0.689365
vn 0.096083 0.727601 0.679238
vn -0.205791 0.817540 0.537846
vn -0.240832 0.969863 0.036956
vn -0.329824 0.935677 0.125400
vn -0.490536 0.791019 0.365600
vn -0.004550 0.559418 0.828874
vn -0.315738 0.631272 0.708383
vn -0.590954 0.624176 0.511056
vn 0.010156 0.587804 0.808940
vn -0.009409 0.547755 0.836586
# 18 vertex normals

vt 0.735139 0.624852 0.000000
vt 0.770951 0.624852 0.000000
vt 0.770951 0.654732 0.000000
vt 0.735139 0.654732 0.000000
vt 0.805144 0.454563 0.000000
vt 0.805144 0.487855 0.000000
vt 0.770951 0.487855 0.000000
vt 0.770951 0.454563 0.000000
vt 0.735139 0.593771 0.000000
vt 0.770951 0.593771 0.000000
vt 0.805144 0.654732 0.000000
vt 0.805144 0.624852 0.000000
vt 0.805144 0.593771 0.000000
vt 0.735139 0.536873 0.000000
vt 0.770951 0.536873 0.000000
vt 0.805144 0.536873 0.000000
vt 0.735139 0.454563 0.000000
vt 0.735139 0.487855 0.000000
# 18 texture coords

g Object296
usemtl 01___Default23
s 1
f -10/-18/-18 -11/-17/-17 -14/-16/-16 -18/-15/-15 
f -15/-14/-14 -6/-13/-13 -5/-12/-12 -13/-11/-11 
f -7/-10/-10 -8/-9/-9 -11/-17/-17 -10/-18/-18 
f -17/-8/-8 -14/-16/-16 -11/-17/-17 -12/-7/-7 
f -12/-7/-7 -11/-17/-17 -8/-9/-9 -9/-6/-6 
f -1/-5/-5 -2/-4/-4 -8/-9/-9 -7/-10/-10 
f -3/-3/-3 -2/-4/-4 -5/-12/-12 -6/-13/-13 
f -16/-2/-2 -13/-11/-11 -5/-12/-12 -4/-1/-1 
f -4/-1/-1 -5/-12/-12 -2/-4/-4 -1/-5/-5 
f -9/-6/-6 -8/-9/-9 -2/-4/-4 -3/-3/-3 
# 10 polygons

#
# object Object297
#

v  17.638487 0.100419 -4.322917
v  17.546402 0.096098 -4.195202
v  17.334127 -0.153722 -4.550964
v  17.242044 -0.158043 -4.423248
v  17.607494 0.077937 -4.246650
v  17.303135 -0.176204 -4.474696
v  17.478041 0.092201 -4.244624
v  17.534357 0.069660 -4.299664
v  17.570126 0.096522 -4.372339
v  17.417837 0.065042 -4.288949
v  17.477913 0.045729 -4.341170
v  17.509924 0.069363 -4.416665
v  17.285046 -0.106190 -4.390489
v  17.346138 -0.124351 -4.441936
v  17.377131 -0.101869 -4.518204
v  17.340345 -0.022503 -4.347785
v  17.403509 -0.037785 -4.397642
v  17.432430 -0.018181 -4.475501
# 18 vertices

vn -0.360949 0.920403 0.150245
vn -0.174330 0.980034 -0.095613
vn -0.083130 0.996304 -0.021631
vn -0.200192 0.958855 0.201296
vn -0.337832 0.686777 -0.643589
vn -0.367558 0.649417 -0.665701
vn -0.599191 0.682785 -0.418060
vn -0.568984 0.721340 -0.394874
vn -0.601328 0.799002 -0.000037
vn -0.414071 0.865320 -0.282430
vn 0.100993 0.961644 -0.255030
vn 0.021196 0.934939 -0.354176
vn -0.211418 0.813004 -0.542519
vn -0.754800 0.645445 -0.116955
vn -0.588979 0.695809 -0.411040
vn -0.360649 0.660332 -0.658706
vn -0.733858 0.671879 -0.100161
vn -0.763082 0.634563 -0.122622
# 18 vertex normals

vt 0.735139 0.624852 0.000000
vt 0.770951 0.624852 0.000000
vt 0.770951 0.654732 0.000000
vt 0.735139 0.654732 0.000000
vt 0.805144 0.454563 0.000000
vt 0.805144 0.487855 0.000000
vt 0.770951 0.487855 0.000000
vt 0.770951 0.454563 0.000000
vt 0.735139 0.593771 0.000000
vt 0.770951 0.593771 0.000000
vt 0.805144 0.654732 0.000000
vt 0.805144 0.624852 0.000000
vt 0.805144 0.593771 0.000000
vt 0.735139 0.536873 0.000000
vt 0.770951 0.536873 0.000000
vt 0.805144 0.536873 0.000000
vt 0.735139 0.454563 0.000000
vt 0.735139 0.487855 0.000000
# 18 texture coords

g Object297
usemtl 01___Default23
s 1
f -10/-18/-18 -11/-17/-17 -14/-16/-16 -18/-15/-15 
f -15/-14/-14 -6/-13/-13 -5/-12/-12 -13/-11/-11 
f -7/-10/-10 -8/-9/-9 -11/-17/-17 -10/-18/-18 
f -17/-8/-8 -14/-16/-16 -11/-17/-17 -12/-7/-7 
f -12/-7/-7 -11/-17/-17 -8/-9/-9 -9/-6/-6 
f -1/-5/-5 -2/-4/-4 -8/-9/-9 -7/-10/-10 
f -3/-3/-3 -2/-4/-4 -5/-12/-12 -6/-13/-13 
f -16/-2/-2 -13/-11/-11 -5/-12/-12 -4/-1/-1 
f -4/-1/-1 -5/-12/-12 -2/-4/-4 -1/-5/-5 
f -9/-6/-6 -8/-9/-9 -2/-4/-4 -3/-3/-3 
# 10 polygons

#
# object Object298
#

v  16.937626 0.110495 -3.941253
v  16.814486 0.074961 -4.135767
v  17.324829 -0.140308 -4.392947
v  17.201687 -0.175842 -4.587461
v  16.862768 0.066632 -4.015055
v  17.249969 -0.184171 -4.466750
v  16.887831 0.080072 -4.240041
v  16.942293 0.067354 -4.126398
v  17.010973 0.115606 -4.045527
v  16.958504 0.057162 -4.330611
v  17.008158 0.047644 -4.211394
v  17.081644 0.092696 -4.136097
v  17.142897 -0.121985 -4.524487
v  17.191181 -0.130314 -4.403777
v  17.266037 -0.086451 -4.329974
v  17.062937 -0.033079 -4.444407
v  17.108290 -0.038374 -4.320682
v  17.186079 0.002456 -4.249893
# 18 vertices

vn -0.197319 0.761592 -0.495835
vn -0.047234 0.851833 -0.232835
vn -0.127573 0.855174 -0.131930
vn -0.276841 0.788004 -0.306829
vn 0.472918 0.683495 -0.345026
vn 0.502699 0.654668 -0.377149
vn 0.345145 0.643362 -0.698816
vn 0.314212 0.673052 -0.666297
vn -0.008706 0.678744 -0.765666
vn 0.169481 0.780310 -0.496825
vn 0.028313 0.862800 0.129310
vn 0.128245 0.854478 0.046403
vn 0.345923 0.777070 -0.208364
vn 0.140880 0.563988 -0.932405
vn 0.335346 0.653516 -0.687703
vn 0.493926 0.662994 -0.370023
vn 0.118905 0.584208 -0.909954
vn 0.148857 0.555476 -0.941410
# 18 vertex normals

vt 0.735139 0.624852 0.000000
vt 0.770951 0.624852 0.000000
vt 0.770951 0.654732 0.000000
vt 0.735139 0.654732 0.000000
vt 0.805144 0.454563 0.000000
vt 0.805144 0.487855 0.000000
vt 0.770951 0.487855 0.000000
vt 0.770951 0.454563 0.000000
vt 0.735139 0.593771 0.000000
vt 0.770951 0.593771 0.000000
vt 0.805144 0.654732 0.000000
vt 0.805144 0.624852 0.000000
vt 0.805144 0.593771 0.000000
vt 0.735139 0.536873 0.000000
vt 0.770951 0.536873 0.000000
vt 0.805144 0.536873 0.000000
vt 0.735139 0.454563 0.000000
vt 0.735139 0.487855 0.000000
# 18 texture coords

g Object298
usemtl 01___Default23
s 1
f -10/-18/-18 -11/-17/-17 -14/-16/-16 -18/-15/-15 
f -15/-14/-14 -6/-13/-13 -5/-12/-12 -13/-11/-11 
f -7/-10/-10 -8/-9/-9 -11/-17/-17 -10/-18/-18 
f -17/-8/-8 -14/-16/-16 -11/-17/-17 -12/-7/-7 
f -12/-7/-7 -11/-17/-17 -8/-9/-9 -9/-6/-6 
f -1/-5/-5 -2/-4/-4 -8/-9/-9 -7/-10/-10 
f -3/-3/-3 -2/-4/-4 -5/-12/-12 -6/-13/-13 
f -16/-2/-2 -13/-11/-11 -5/-12/-12 -4/-1/-1 
f -4/-1/-1 -5/-12/-12 -2/-4/-4 -1/-5/-5 
f -9/-6/-6 -8/-9/-9 -2/-4/-4 -3/-3/-3 
# 10 polygons

#
# object Object299
#

v  16.909679 0.056312 -4.762230
v  17.009296 0.009431 -4.874872
v  17.208483 -0.076896 -4.442543
v  17.308100 -0.123777 -4.555185
v  16.945911 0.008596 -4.823001
v  17.244713 -0.124612 -4.503314
v  17.074690 0.028058 -4.824794
v  17.016005 0.024775 -4.767747
v  16.975075 0.074940 -4.712152
v  17.133045 0.022805 -4.771001
v  17.070667 0.021248 -4.717938
v  17.033428 0.069686 -4.658359
v  17.265366 -0.090401 -4.606867
v  17.201981 -0.091236 -4.554996
v  17.165749 -0.043520 -4.494224
v  17.209862 -0.031957 -4.680276
v  17.144405 -0.030837 -4.631050
v  17.110247 0.014924 -4.567634
# 18 vertices

vn 0.337407 0.815078 -0.470961
vn 0.134549 0.952309 -0.273869
vn 0.047409 0.934686 -0.352300
vn 0.178747 0.822808 -0.539478
vn 0.275132 0.895192 0.350619
vn 0.304757 0.870518 0.386422
vn 0.549432 0.821130 0.154500
vn 0.519351 0.846482 0.117231
vn 0.572447 0.772097 -0.275989
vn 0.366549 0.929178 -0.047645
vn -0.148978 0.980117 -0.131062
vn -0.074352 0.996896 -0.025895
vn 0.150694 0.967269 0.204163
vn 0.723875 0.682136 -0.103420
vn 0.539214 0.829997 0.142662
vn 0.297904 0.877622 0.375542
vn 0.703073 0.699169 -0.129812
vn 0.732174 0.674638 -0.093724
# 18 vertex normals

vt 0.735139 0.624852 0.000000
vt 0.770951 0.624852 0.000000
vt 0.770951 0.654732 0.000000
vt 0.735139 0.654732 0.000000
vt 0.805144 0.454563 0.000000
vt 0.805144 0.487855 0.000000
vt 0.770951 0.487855 0.000000
vt 0.770951 0.454563 0.000000
vt 0.735139 0.593771 0.000000
vt 0.770951 0.593771 0.000000
vt 0.805144 0.654732 0.000000
vt 0.805144 0.624852 0.000000
vt 0.805144 0.593771 0.000000
vt 0.735139 0.536873 0.000000
vt 0.770951 0.536873 0.000000
vt 0.805144 0.536873 0.000000
vt 0.735139 0.454563 0.000000
vt 0.735139 0.487855 0.000000
# 18 texture coords

g Object299
usemtl 01___Default23
s 1
f -10/-18/-18 -11/-17/-17 -14/-16/-16 -18/-15/-15 
f -15/-14/-14 -6/-13/-13 -5/-12/-12 -13/-11/-11 
f -7/-10/-10 -8/-9/-9 -11/-17/-17 -10/-18/-18 
f -17/-8/-8 -14/-16/-16 -11/-17/-17 -12/-7/-7 
f -12/-7/-7 -11/-17/-17 -8/-9/-9 -9/-6/-6 
f -1/-5/-5 -2/-4/-4 -8/-9/-9 -7/-10/-10 
f -3/-3/-3 -2/-4/-4 -5/-12/-12 -6/-13/-13 
f -16/-2/-2 -13/-11/-11 -5/-12/-12 -4/-1/-1 
f -4/-1/-1 -5/-12/-12 -2/-4/-4 -1/-5/-5 
f -9/-6/-6 -8/-9/-9 -2/-4/-4 -3/-3/-3 
# 10 polygons

#
# object Object300
#

v  17.441734 -0.374538 -4.261550
v  17.233290 -0.266615 -4.524475
v  17.623207 0.348327 -4.072364
v  17.414761 0.456249 -4.335289
# 4 vertices

vn 0.777102 -0.030563 -0.628632
# 1 vertex normals

vt 0.752383 0.138842 0.000000
vt 0.908837 0.138842 0.000000
vt 0.908837 0.380077 0.000000
vt 0.752383 0.380077 0.000000
# 4 texture coords

g Object300
usemtl 01___Default23
s 1
f -4/-4/-1 -3/-3/-1 -1/-2/-1 -2/-1/-1 
# 1 polygons

